<?xml version="1.0" encoding="UTF-8" standalone="no"?>
<!DOCTYPE svg PUBLIC "-//W3C//DTD SVG 1.1//EN" "http://www.w3.org/Graphics/SVG/1.1/DTD/svg11.dtd">
<svg width="100%" height="100%" viewBox="0 0 745 187" version="1.1" xmlns="http://www.w3.org/2000/svg" xmlns:xlink="http://www.w3.org/1999/xlink" xml:space="preserve" xmlns:serif="http://www.serif.com/" style="fill-rule:evenodd;clip-rule:evenodd;stroke-linejoin:round;stroke-miterlimit:2;">
    <g transform="matrix(1,0,0,1,-474.646,-449.728)">
        <g transform="matrix(1,0,0,1,38.4828,-1819.01)">
            <g transform="matrix(220.984,0,0,220.984,430.417,2411.27)">
                <path d="M0.211,-0.374C0.252,-0.374 0.279,-0.358 0.301,-0.342C0.312,-0.334 0.321,-0.328 0.335,-0.328C0.361,-0.328 0.383,-0.35 0.383,-0.376C0.383,-0.391 0.379,-0.398 0.373,-0.406C0.345,-0.441 0.282,-0.468 0.211,-0.468C0.119,-0.468 0.044,-0.424 0.044,-0.334C0.044,-0.164 0.289,-0.206 0.289,-0.125C0.289,-0.097 0.26,-0.085 0.215,-0.085C0.165,-0.085 0.132,-0.104 0.105,-0.126C0.094,-0.135 0.084,-0.138 0.074,-0.138C0.048,-0.138 0.026,-0.116 0.026,-0.09C0.026,-0.078 0.03,-0.069 0.038,-0.059C0.063,-0.028 0.129,0.011 0.215,0.011C0.318,0.011 0.398,-0.037 0.398,-0.131C0.398,-0.296 0.152,-0.262 0.152,-0.336C0.152,-0.361 0.174,-0.374 0.211,-0.374Z" style="fill-rule:nonzero;"/>
            </g>
            <g transform="matrix(220.984,0,0,220.984,524.336,2411.27)">
                <path d="M0.029,-0.228C0.029,-0.065 0.11,0.013 0.246,0.013C0.328,0.013 0.383,-0.023 0.406,-0.044C0.418,-0.055 0.423,-0.067 0.423,-0.081C0.423,-0.108 0.402,-0.129 0.375,-0.129C0.365,-0.129 0.356,-0.127 0.345,-0.119C0.322,-0.102 0.292,-0.079 0.246,-0.079C0.176,-0.079 0.138,-0.132 0.138,-0.228C0.138,-0.322 0.176,-0.376 0.246,-0.376C0.296,-0.376 0.322,-0.351 0.335,-0.337C0.344,-0.327 0.356,-0.32 0.372,-0.32C0.399,-0.32 0.42,-0.341 0.42,-0.368C0.42,-0.38 0.417,-0.388 0.409,-0.399C0.391,-0.422 0.338,-0.468 0.246,-0.468C0.11,-0.468 0.029,-0.391 0.029,-0.228Z" style="fill-rule:nonzero;"/>
            </g>
            <g transform="matrix(220.984,0,0,220.984,623.999,2411.27)">
                <path d="M0.158,-0.408C0.158,-0.438 0.134,-0.462 0.104,-0.462C0.074,-0.462 0.05,-0.438 0.05,-0.408L0.05,-0.046C0.05,-0.016 0.074,0.008 0.104,0.008C0.134,0.008 0.158,-0.016 0.158,-0.046L0.158,-0.254C0.158,-0.321 0.197,-0.365 0.266,-0.365C0.294,-0.365 0.317,-0.388 0.317,-0.416C0.317,-0.444 0.294,-0.467 0.266,-0.467C0.224,-0.467 0.177,-0.442 0.158,-0.403L0.158,-0.408Z" style="fill-rule:nonzero;"/>
            </g>
            <g transform="matrix(220.984,0,0,220.984,695.598,2411.27)">
                <path d="M0.163,-0.408C0.163,-0.438 0.139,-0.462 0.109,-0.462C0.079,-0.462 0.055,-0.438 0.055,-0.408L0.055,-0.046C0.055,-0.016 0.079,0.008 0.109,0.008C0.139,0.008 0.163,-0.016 0.163,-0.046L0.163,-0.408ZM0.109,-0.516C0.151,-0.516 0.174,-0.54 0.174,-0.579C0.174,-0.625 0.151,-0.645 0.109,-0.645C0.068,-0.645 0.045,-0.625 0.045,-0.579C0.045,-0.54 0.068,-0.516 0.109,-0.516Z" style="fill-rule:nonzero;"/>
            </g>
            <g transform="matrix(220.984,0,0,220.984,742.667,2411.27)">
                <path d="M0.163,-0.408C0.163,-0.438 0.139,-0.462 0.109,-0.462C0.079,-0.462 0.055,-0.438 0.055,-0.408L0.055,0.147C0.055,0.177 0.079,0.201 0.109,0.201C0.139,0.201 0.163,0.177 0.163,0.147L0.163,-0.03C0.187,-0.003 0.231,0.013 0.281,0.013C0.411,0.013 0.484,-0.065 0.484,-0.228C0.484,-0.391 0.412,-0.468 0.281,-0.468C0.225,-0.468 0.178,-0.433 0.163,-0.408ZM0.374,-0.227C0.374,-0.129 0.337,-0.079 0.267,-0.079C0.197,-0.079 0.16,-0.129 0.16,-0.227C0.16,-0.326 0.197,-0.376 0.267,-0.376C0.337,-0.376 0.374,-0.326 0.374,-0.227Z" style="fill-rule:nonzero;"/>
            </g>
            <g transform="matrix(220.984,0,0,220.984,856.253,2411.27)">
                <path d="M0.085,-0.454L0.062,-0.454C0.037,-0.454 0.017,-0.434 0.017,-0.409C0.017,-0.384 0.037,-0.364 0.062,-0.364L0.085,-0.364L0.085,-0.128C0.085,-0.049 0.14,0.008 0.229,0.008C0.255,0.008 0.276,-0.013 0.276,-0.039C0.276,-0.065 0.255,-0.086 0.229,-0.086C0.211,-0.086 0.191,-0.099 0.191,-0.122L0.191,-0.364L0.236,-0.364C0.261,-0.364 0.281,-0.384 0.281,-0.409C0.281,-0.434 0.261,-0.454 0.236,-0.454L0.191,-0.454L0.191,-0.538C0.191,-0.567 0.167,-0.591 0.138,-0.591C0.109,-0.591 0.085,-0.567 0.085,-0.538L0.085,-0.454Z" style="fill-rule:nonzero;"/>
            </g>
            <g transform="matrix(220.984,0,0,220.984,923.874,2411.27)">
                <path d="M0.163,-0.408C0.163,-0.438 0.139,-0.462 0.109,-0.462C0.079,-0.462 0.055,-0.438 0.055,-0.408L0.055,-0.046C0.055,-0.016 0.079,0.008 0.109,0.008C0.139,0.008 0.163,-0.016 0.163,-0.046L0.163,-0.408ZM0.109,-0.516C0.151,-0.516 0.174,-0.54 0.174,-0.579C0.174,-0.625 0.151,-0.645 0.109,-0.645C0.068,-0.645 0.045,-0.625 0.045,-0.579C0.045,-0.54 0.068,-0.516 0.109,-0.516Z" style="fill-rule:nonzero;"/>
            </g>
            <g transform="matrix(220.984,0,0,220.984,970.944,2411.27)">
                <path d="M0.467,-0.227C0.467,-0.391 0.383,-0.468 0.248,-0.468C0.113,-0.468 0.029,-0.391 0.029,-0.227C0.029,-0.064 0.113,0.013 0.248,0.013C0.383,0.013 0.467,-0.064 0.467,-0.227ZM0.358,-0.227C0.358,-0.129 0.32,-0.079 0.248,-0.079C0.176,-0.079 0.138,-0.129 0.138,-0.227C0.138,-0.326 0.176,-0.376 0.248,-0.376C0.32,-0.376 0.358,-0.326 0.358,-0.227Z" style="fill-rule:nonzero;"/>
            </g>
            <g transform="matrix(220.984,0,0,220.984,1080.55,2411.27)">
                <path d="M0.286,-0.468C0.219,-0.468 0.177,-0.437 0.158,-0.408C0.158,-0.438 0.134,-0.462 0.104,-0.462C0.074,-0.462 0.05,-0.438 0.05,-0.408L0.05,-0.044C0.05,-0.014 0.073,0.008 0.104,0.008C0.135,0.008 0.158,-0.014 0.158,-0.044L0.158,-0.267C0.158,-0.326 0.183,-0.37 0.258,-0.37C0.323,-0.37 0.346,-0.331 0.346,-0.274L0.346,-0.044C0.346,-0.014 0.368,0.008 0.4,0.008C0.43,0.008 0.454,-0.014 0.454,-0.044L0.454,-0.294C0.454,-0.381 0.422,-0.468 0.286,-0.468Z" style="fill-rule:nonzero;"/>
            </g>
        </g>
    </g>
</svg>
