<?xml version="1.0" encoding="UTF-8" standalone="no"?><!DOCTYPE svg PUBLIC "-//W3C//DTD SVG 1.1//EN" "http://www.w3.org/Graphics/SVG/1.1/DTD/svg11.dtd"><svg width="100%" height="100%" viewBox="0 0 745 187" version="1.1" xmlns="http://www.w3.org/2000/svg" xmlns:xlink="http://www.w3.org/1999/xlink" xml:space="preserve" xmlns:serif="http://www.serif.com/" style="fill-rule:evenodd;clip-rule:evenodd;stroke-linejoin:round;stroke-miterlimit:2;"><g><path d="M40.882,59.887c9.06,-0 15.027,3.535 19.889,7.071c2.43,1.768 4.419,3.094 7.513,3.094c5.746,-0 10.607,-4.862 10.607,-10.607c0,-3.315 -0.884,-4.862 -2.21,-6.63c-6.187,-7.734 -20.109,-13.701 -35.799,-13.701c-20.331,0 -36.904,9.723 -36.904,29.612c-0,37.567 54.141,28.286 54.141,46.186c-0,6.187 -6.409,8.839 -16.353,8.839c-11.049,-0 -18.342,-4.199 -24.308,-9.06c-2.431,-1.989 -4.641,-2.652 -6.851,-2.652c-5.745,-0 -10.607,4.861 -10.607,10.607c-0,2.652 0.884,4.641 2.652,6.85c5.524,6.851 20.109,15.469 39.114,15.469c22.761,0 40.44,-10.607 40.44,-31.379c-0,-36.463 -54.362,-28.949 -54.362,-45.302c-0,-5.525 4.862,-8.397 13.038,-8.397Z" style="fill-rule:nonzero;"/><path d="M94.581,92.15c0,36.021 17.9,53.257 47.954,53.257c18.12,0 30.274,-7.955 35.357,-12.596c2.652,-2.431 3.757,-5.082 3.757,-8.176c-0,-5.967 -4.641,-10.607 -10.608,-10.607c-2.209,-0 -4.198,0.442 -6.629,2.209c-5.083,3.757 -11.712,8.84 -21.877,8.84c-15.469,-0 -23.867,-11.712 -23.867,-32.927c0,-20.772 8.398,-32.705 23.867,-32.705c11.049,-0 16.794,5.524 19.667,8.618c1.989,2.21 4.641,3.757 8.176,3.757c5.967,-0 10.608,-4.641 10.608,-10.607c-0,-2.652 -0.663,-4.42 -2.431,-6.851c-3.978,-5.083 -15.69,-15.248 -36.02,-15.248c-30.054,0 -47.954,17.016 -47.954,53.036Z" style="fill-rule:nonzero;"/><path d="M222.752,52.373c-0,-6.629 -5.304,-11.933 -11.933,-11.933c-6.63,0 -11.934,5.304 -11.934,11.933l0,79.996c0,6.63 5.304,11.933 11.934,11.933c6.629,0 11.933,-5.303 11.933,-11.933l-0,-45.964c-0,-14.806 8.618,-24.53 23.866,-24.53c6.187,0 11.27,-5.082 11.27,-11.27c0,-6.187 -5.083,-11.27 -11.27,-11.27c-9.281,0 -19.668,5.525 -23.866,14.143l-0,-1.105Z" style="fill-rule:nonzero;"/><path d="M295.455,52.373c0,-6.629 -5.303,-11.933 -11.933,-11.933c-6.629,0 -11.933,5.304 -11.933,11.933l0,79.996c0,6.63 5.304,11.933 11.933,11.933c6.63,0 11.933,-5.303 11.933,-11.933l0,-79.996Zm-11.933,-23.866c9.281,-0 14.364,-5.304 14.364,-13.922c0,-10.165 -5.083,-14.585 -14.364,-14.585c-9.06,-0 -14.143,4.42 -14.143,14.585c0,8.618 5.083,13.922 14.143,13.922Z" style="fill-rule:nonzero;"/><path d="M342.525,52.373c-0,-6.629 -5.304,-11.933 -11.933,-11.933c-6.63,0 -11.933,5.304 -11.933,11.933l-0,122.646c-0,6.63 5.303,11.933 11.933,11.933c6.629,0 11.933,-5.303 11.933,-11.933l-0,-39.114c5.303,5.967 15.027,9.502 26.076,9.502c28.728,0 44.86,-17.236 44.86,-53.257c-0,-36.02 -15.911,-53.036 -44.86,-53.036c-12.375,0 -22.761,7.735 -26.076,13.259Zm46.627,39.998c0,21.657 -8.176,32.706 -23.645,32.706c-15.469,-0 -23.645,-11.049 -23.645,-32.706c-0,-21.877 8.176,-32.926 23.645,-32.926c15.469,-0 23.645,11.049 23.645,32.926Z" style="fill-rule:nonzero;"/><path d="M438.874,42.208l-5.083,-0c-5.524,-0 -9.944,4.42 -9.944,9.944c-0,5.525 4.42,9.944 9.944,9.944l5.083,0l-0,52.153c-0,17.457 12.154,30.053 31.821,30.053c5.746,0 10.387,-4.64 10.387,-10.386c-0,-5.745 -4.641,-10.386 -10.387,-10.386c-3.977,-0 -8.397,-2.873 -8.397,-7.955l0,-53.479l9.944,0c5.525,0 9.945,-4.419 9.945,-9.944c-0,-5.524 -4.42,-9.944 -9.945,-9.944l-9.944,-0l0,-18.563c0,-6.408 -5.304,-11.712 -11.712,-11.712c-6.409,0 -11.712,5.304 -11.712,11.712l-0,18.563Z" style="fill-rule:nonzero;"/><path d="M523.732,52.373c-0,-6.629 -5.304,-11.933 -11.934,-11.933c-6.629,0 -11.933,5.304 -11.933,11.933l0,79.996c0,6.63 5.304,11.933 11.933,11.933c6.63,0 11.934,-5.303 11.934,-11.933l-0,-79.996Zm-11.934,-23.866c9.282,-0 14.364,-5.304 14.364,-13.922c0,-10.165 -5.082,-14.585 -14.364,-14.585c-9.06,-0 -14.143,4.42 -14.143,14.585c0,8.618 5.083,13.922 14.143,13.922Z" style="fill-rule:nonzero;"/><path d="M637.98,92.371c0,-36.241 -18.563,-53.257 -48.395,-53.257c-29.833,0 -48.396,17.016 -48.396,53.257c0,36.021 18.563,53.036 48.396,53.036c29.832,0 48.395,-17.015 48.395,-53.036Zm-24.087,0c-0,21.657 -8.397,32.706 -24.308,32.706c-15.911,-0 -24.309,-11.049 -24.309,-32.706c0,-21.877 8.398,-32.926 24.309,-32.926c15.911,-0 24.308,11.049 24.308,32.926Z" style="fill-rule:nonzero;"/><path d="M707.59,39.114c-14.806,0 -24.087,6.851 -28.286,13.259c0,-6.629 -5.304,-11.933 -11.933,-11.933c-6.63,0 -11.933,5.304 -11.933,11.933l-0,80.438c-0,6.63 5.082,11.491 11.933,11.491c6.85,0 11.933,-4.861 11.933,-11.491l0,-49.279c0,-13.038 5.525,-22.761 22.098,-22.761c14.364,-0 19.447,8.618 19.447,21.214l0,50.826c0,6.63 4.862,11.491 11.933,11.491c6.63,0 11.933,-4.861 11.933,-11.491l0,-55.246c0,-19.225 -7.071,-38.451 -37.125,-38.451Z" style="fill-rule:nonzero;"/></g></svg>